<svg width="528" height="522" viewBox="0 0 528 522" fill="none" xmlns="http://www.w3.org/2000/svg">
<g clip-path="url(#clip0_9_156)">
<path d="M126.477 179.073C126.477 179.073 119.368 122.267 113.737 103.999C108.121 85.7318 109.988 82.0992 109.988 82.0992C109.988 82.0992 98.383 99.2307 103.999 111.235C109.615 123.224 111.108 126.034 109.615 133.628C108.121 141.222 109.988 156.59 126.463 179.088L126.477 179.073Z" fill="#587E3D"/>
<path d="M111.437 108.858C111.273 107.991 109.958 108.364 110.123 109.216L122.803 175.575C122.968 176.442 124.282 176.068 124.118 175.216C119.891 153.091 115.664 130.982 111.437 108.858Z" fill="#B7D247"/>
<path d="M126.477 179.073C126.477 179.073 99.8915 136.02 57.1897 118.739C57.1897 118.739 57.5631 141.207 70.6768 144.959C83.7906 148.712 84.5374 152.075 86.4044 159.206C88.2714 166.321 94.2009 163.705 102.475 169.326C110.75 174.947 105.134 186.188 126.477 179.073Z" fill="#83B245"/>
<path d="M121.608 181.36C121.608 181.36 96.1426 168.28 78.1597 181.36C78.1597 181.36 97.2628 194.141 121.608 181.36Z" fill="#587E3D"/>
<path d="M122.743 176.501C115.051 178.086 112.826 166.575 108.256 162.584C106.194 160.79 103.551 159.654 101.131 158.443C97.7855 156.754 95.0821 154.646 92.7969 151.656C87.0167 144.107 82.1924 129.846 69.9748 132.701C69.1085 132.895 69.4819 134.226 70.3333 134.017C78.1746 132.178 83.6711 139.368 87.1959 145.273C90.1234 150.176 92.8417 154.975 97.7556 158.129C100.026 159.594 102.58 160.626 104.94 161.956C108.45 163.944 110.362 166.979 112.184 170.432C114.394 174.618 117.859 178.878 123.102 177.802C123.968 177.623 123.595 176.307 122.743 176.486V176.501Z" fill="#B7D247"/>
<path d="M117.83 181.599C107.628 180.388 97.3972 179.88 87.1363 180.074C86.255 180.089 86.255 181.464 87.1363 181.45C97.3972 181.255 107.643 181.763 117.83 182.974C118.711 183.079 118.696 181.704 117.83 181.599Z" fill="#B7D247"/>
<path d="M493.632 311.879C493.632 338.338 488.748 363.661 479.832 386.982C476.441 395.831 472.483 404.397 467.987 412.619C451.961 441.934 429.169 466.988 401.687 485.689C398.028 488.186 394.294 490.563 390.47 492.835C359.179 511.371 322.676 522 283.708 522C273.537 522 263.544 521.268 253.761 519.877C249.729 519.294 245.741 518.622 241.768 517.799C198.588 509.069 160.248 487.05 131.137 456.18C129.808 454.79 128.524 453.4 127.254 451.965C93.9918 414.802 73.7686 365.695 73.7686 311.879C73.7686 269.947 86.0459 230.9 107.18 198.118C110.063 193.663 113.08 189.313 116.291 185.112C154.617 134.465 215.361 101.757 283.708 101.757C327.157 101.757 367.513 114.957 401.015 137.605C409.931 143.614 418.355 150.296 426.227 157.576C467.689 195.965 493.662 250.887 493.662 311.879H493.632Z" fill="#75ACA5"/>
<path d="M454.62 311.879C454.62 335.483 450.259 358.056 442.313 378.865C427.108 418.614 398.774 451.86 362.614 473.267C334.714 489.8 302.154 499.278 267.398 499.278C258.332 499.278 249.415 498.635 240.692 497.379C196.079 491.011 156.543 468.887 127.867 436.821C98.2038 403.68 80.1761 359.894 80.1761 311.879C80.1761 274.491 91.1241 239.661 109.973 210.436C143.295 158.727 201.366 124.494 267.413 124.494C316.477 124.494 361.121 143.375 394.503 174.289C431.484 208.522 454.65 257.51 454.65 311.894L454.62 311.879Z" fill="#98D4CB"/>
<path d="M253.747 519.877C203.726 512.732 159.396 487.932 127.239 451.965C132.153 437.748 146.417 426.731 161.622 426.88C166.252 426.925 170.942 427.867 175.467 426.94C181.755 425.655 186.714 421.035 192.076 417.507C197.438 413.979 204.548 411.468 210.104 414.682C215.182 417.627 216.84 424.219 216.795 430.094C216.75 435.969 215.511 441.934 216.795 447.689C219.185 458.318 229.386 465.075 238.885 470.397C248.385 475.718 258.84 481.578 262.604 491.833C266.248 501.774 261.722 512.672 253.747 519.892V519.877Z" fill="#43632D"/>
<path d="M479.832 386.982C462.79 431.559 431.006 468.827 390.47 492.835C388.259 491.474 386.378 489.68 385.033 487.453C382.195 482.789 382.136 477.034 381.284 471.652C380.418 466.271 378.133 460.366 373.085 458.333C363.824 454.595 351.457 465.822 344.333 459.065C341.6 456.464 340.987 452.323 342.451 448.84C345.274 442.143 351.711 439.333 357.297 435.685C361.614 432.86 365.796 428.958 366.468 423.846C367.588 415.115 358.507 408.957 350.83 404.681C348.903 403.605 346.932 402.364 345.065 400.944C339.479 396.684 339.359 388.447 344.408 383.543C345.259 382.736 345.916 381.72 346.289 380.643C347.529 376.876 346.349 372.78 345.408 368.938C344.288 364.304 343.646 358.923 347.693 355.499C350.785 352.883 355.206 352.719 358.851 354.498C365.96 357.966 368.649 365.351 371.785 372.063C374.369 377.609 377.924 383.304 383.674 385.337C388.334 386.967 393.636 385.861 398.252 387.595C408.991 391.661 410.753 408.583 421.835 411.617C429.662 413.755 437.234 407.402 441.924 400.765C447.689 392.588 452.409 382.542 463.716 381.346C469.705 380.718 475.53 382.931 479.847 387.012L479.832 386.982Z" fill="#43632D"/>
<path d="M426.197 157.591C424.643 160.282 422.388 162.464 419.446 163.615C406.959 168.489 393.397 152.807 380.762 157.352C370.426 161.074 368.783 175.126 361.091 182.944C353.504 190.658 340.793 191.092 330.741 187.07C320.689 183.049 312.579 175.455 304.379 168.384C296.179 161.298 287.248 154.377 276.643 152.18C270.116 150.849 262.902 151.537 257.57 155.513C252.238 159.49 249.49 167.188 252.402 173.168C256.091 180.687 267.517 185.187 265.591 193.349C263.276 203.23 246.368 199.044 239.916 206.878C234.867 212.992 239.169 222.424 236.854 230.003C234.569 237.493 226.22 241.933 224.114 249.452C222.008 256.926 226.683 264.446 231.148 270.814C239.542 282.773 248.056 294.852 258.929 304.613C263.515 308.739 268.667 312.611 271.401 318.157C274.134 323.703 273.357 331.626 267.936 334.571C261.603 337.994 253.821 332.598 250.371 326.289C246.921 319.966 245.577 312.447 240.902 306.96C228.415 292.31 202.367 301.639 187.073 289.963C168.552 275.837 177.23 240.692 157.111 228.972C150.659 225.22 142.817 225.085 135.633 223.067C123.072 219.539 112.916 209.912 107.135 198.147C144.505 140.161 209.611 101.772 283.663 101.772C338.672 101.772 388.737 122.94 426.167 157.606L426.197 157.591Z" fill="#43632D"/>
<path d="M400.985 137.604C398.237 140.878 394.368 143.195 390.126 143.405C380.224 143.898 372.801 133.733 363.018 132.118C351.218 130.175 341.435 140.819 330.159 144.84C318.897 148.846 306.44 145.991 295.044 142.298C283.678 138.606 272.162 134.047 260.244 134.689C248.31 135.332 235.689 143.091 234.165 154.96C232.836 165.245 239.781 176.651 234.315 185.471C228.579 194.739 213.614 193.304 206.534 201.601C201.426 207.565 202.158 216.579 204.652 224.039C207.131 231.498 211.089 238.644 211.582 246.477C212.075 254.325 207.4 263.369 199.574 264.012C192.031 264.655 185.967 257.076 184.772 249.587C183.577 242.082 185.683 234.518 186.385 226.954C187.087 219.405 185.908 210.824 179.948 206.115C171.136 199.164 158.425 204.695 147.223 204.68C134.379 204.68 122.654 196.354 116.261 185.112C154.587 134.465 215.331 101.757 283.678 101.757C327.127 101.757 367.484 114.957 400.985 137.604Z" fill="#58813A"/>
<path d="M467.972 412.619C451.946 441.934 429.154 466.988 401.672 485.689C400.731 484.374 399.954 482.924 399.417 481.339C396.071 471.682 400.88 458.781 393.114 452.159C389.544 449.109 384.481 448.736 380.03 447.256C375.579 445.776 370.994 441.874 371.964 437.27C373.533 429.765 387.244 430.05 388.23 422.441C388.991 416.491 380.702 412.664 380.538 406.655C380.358 400.66 388.857 397.79 394.129 400.645C399.402 403.5 402.105 409.39 404.913 414.697C407.721 420.004 411.664 425.565 417.579 426.537C427.586 428.196 434.023 416.491 442.701 411.244C450.393 406.595 460.31 407.761 467.987 412.589L467.972 412.619Z" fill="#58813A"/>
<path d="M242.231 512.717C242.261 514.421 242.096 516.11 241.753 517.784C198.573 509.054 160.233 487.035 131.123 456.165C132.019 455.238 133.064 454.416 134.244 453.743C145.924 447.046 162.07 457.466 173.735 450.739C180.889 446.628 185.848 436.492 193.943 438.047C198.857 438.989 201.799 444.221 202.71 449.154C203.622 454.072 203.188 459.245 204.682 464.043C208.461 476.241 222.501 481.444 231.746 490.264C237.885 496.123 242.126 504.241 242.231 512.717Z" fill="#58813A"/>
<path d="M190.642 347.666H0C5.76527 340.207 17.6393 337.905 24.8683 343.944C24.1365 339.669 26.7502 335.019 30.4245 332.702C34.0987 330.385 39.1471 330.535 42.6869 333.046C40.8199 327.665 40.9244 322.462 41.5816 316.812C42.2239 311.146 45.226 305.51 50.2893 302.909C55.3525 300.293 62.462 301.609 65.3596 306.512C62.0289 295.674 71.6626 282.594 82.5359 279.44C93.4093 276.285 105.851 282.011 111.571 291.802C117.292 301.594 116.56 314.45 110.825 324.226C116.351 320.19 124.864 319.383 131.302 321.685C137.739 323.987 142.892 329.608 144.625 336.23C146.775 332.628 152.003 330.191 156.021 331.372C160.038 332.568 162.996 336.679 162.846 340.879C171.718 336.634 184.489 340.012 190.672 347.666H190.642Z" fill="white"/>
<path d="M528 221.438H347.38C352.727 215.129 363.406 213.201 370.889 216.699C368.873 209.434 372.741 201.317 380.089 199.702C387.438 198.088 395.563 203.619 396.773 211.048C395.922 205.009 395.085 198.76 395.757 192.691C396.414 186.622 398.774 180.523 403.375 176.531C409.976 170.806 420.805 170.791 427.407 176.501C434.008 182.212 435.576 192.945 430.872 200.3C434.038 197.535 439.699 196.473 443.597 198.088C447.48 199.702 450.303 203.634 450.602 207.834C454.276 202.378 464.149 199.732 470.407 201.765C476.665 203.798 481.176 210.271 480.922 216.848C494.633 208.836 516.649 210.331 528 221.423V221.438Z" fill="white"/>
<path d="M299.585 483.761C286.307 485.48 274.448 476.002 264.411 467.138C256.33 459.992 248.25 452.846 240.17 445.701C233 439.363 225.742 432.92 220.559 424.877C214.241 415.071 212.24 400.182 221.515 393.096C228.863 387.49 239.781 389.822 247.264 395.234C254.747 400.645 260.005 408.538 266.502 415.116C272.999 421.678 281.826 427.209 290.952 425.744C299.809 424.324 306.216 416.88 313.58 411.767C320.943 406.64 332.653 404.502 337.686 411.931C341.555 417.642 338.881 425.55 334.759 431.066C330.637 436.582 325.095 441.261 322.631 447.704C320.256 453.878 321.048 460.844 319.151 467.182C316.552 475.838 308.561 482.625 299.6 483.776L299.585 483.761Z" fill="#C7E7E3"/>
<path d="M311.773 241.843C317.568 230.811 331.458 224.876 334.729 212.857C336.775 205.338 333.549 196.682 327.097 192.332C320.63 187.982 311.414 188.251 305.231 192.975C293.64 201.825 293.282 222.843 279.242 226.715C272.506 228.568 264.889 225.354 258.526 228.255C251.805 231.304 249.52 240.303 251.82 247.329C254.12 254.34 259.825 259.662 265.665 264.177C271.505 268.691 277.808 272.847 282.199 278.767C288.114 286.72 289.891 296.945 291.146 306.781C292.401 316.617 293.357 326.783 298.032 335.543C302.692 344.288 312.191 351.344 321.974 349.759C335.61 347.562 341.794 330.176 338.344 316.782C334.893 303.388 325.215 292.669 317.866 280.964C310.518 269.259 305.38 254.101 311.802 241.858L311.773 241.843Z" fill="#C7E7E3"/>
<path d="M322.452 154.467C311.31 156.694 299.465 157.173 288.831 153.151C278.197 149.13 269.041 139.922 267.473 128.665C266.666 122.835 267.876 116.93 267.727 111.055C267.577 105.18 265.576 98.7224 260.453 95.8821C264.829 94.462 270.116 96.9286 272.835 100.636C275.568 104.343 276.554 109.022 277.211 113.582C277.883 118.141 278.316 122.82 280.168 127.021C282.633 132.626 287.397 136.872 292.356 140.445C301.407 146.948 311.668 151.612 322.437 154.452L322.452 154.467Z" fill="#83B245"/>
<path d="M301.795 149.922C291.848 149.504 282.991 143.659 278.48 134.809C273.731 125.481 275.747 114.18 272.103 104.463C271.789 103.641 270.475 103.999 270.788 104.822C274.851 115.66 272.566 127.947 278.764 138.098C283.603 146.021 292.64 150.909 301.795 151.283C302.677 151.313 302.677 149.952 301.795 149.907V149.922Z" fill="#B7D247"/>
<path d="M336.85 155.304C322.736 159.729 306.455 156.365 295.238 146.708C284.022 137.051 278.286 121.43 280.571 106.81C282.05 97.3471 286.576 87.6004 283.215 78.6311C281.049 72.8309 275.986 68.72 271.356 64.6091C266.726 60.4981 262.096 55.6248 261.319 49.4958C260.677 44.3683 262.872 39.3305 265.426 34.8309C267.98 30.3462 270.983 25.9812 272.222 20.9733C273.462 15.9505 272.446 9.94101 268.234 6.95123C277.48 9.52244 284.798 18.3572 283.529 27.8647C282.692 34.0984 278.958 40.0182 279.854 46.2518C280.87 53.3376 287.427 58.0914 293.506 61.8585C299.585 65.6256 306.291 69.9309 308.024 76.8671C311.085 89.0953 296.762 100.681 299.764 112.924C301.004 118.006 305.111 121.953 309.652 124.539C314.192 127.125 319.255 128.62 324.065 130.683C328.874 132.731 333.609 135.512 336.477 139.877C339.359 144.242 340.211 151.298 336.85 155.304Z" fill="#83B245"/>
<path d="M331.772 147.291C317.956 146.275 303.871 141.88 295.701 129.951C291.669 124.076 290.414 117.169 291.549 110.203C292.684 103.252 295.821 96.809 297.091 89.8876C298.046 84.7303 297.763 79.4533 295.418 74.7145C292.908 69.6319 287.367 66.6571 283.081 63.3085C272.909 55.3557 270.848 40.2723 278.391 29.8081C278.914 29.0905 277.719 28.4029 277.211 29.1204C270.624 38.2542 270.997 51.0056 277.734 59.945C281.527 64.9828 287.591 67.6586 291.923 72.1582C298.091 78.5863 296.493 88.2881 294.208 95.9868C292.162 102.908 289.443 109.605 289.772 116.96C290.011 122.521 292.445 128.127 295.851 132.462C304.544 143.554 318.255 147.665 331.817 148.652C332.698 148.711 332.698 147.351 331.817 147.276L331.772 147.291Z" fill="#B7D247"/>
<path d="M340.24 154.108C340.24 154.108 335.401 101.757 382.3 83.3849C382.3 83.3849 385.631 139.413 340.24 154.108Z" fill="#83B245"/>
<path d="M375.071 92.5935C363.794 112.446 352.503 132.298 341.226 152.15C340.793 152.912 341.973 153.615 342.406 152.837C353.683 132.985 364.974 113.133 376.251 93.2811C376.684 92.5187 375.504 91.8161 375.071 92.5935Z" fill="#B7D247"/>
<path d="M322.631 60.1543C312.295 83.056 310.757 109.202 318.419 133.135C318.688 133.972 320.017 133.613 319.733 132.776C312.191 109.217 313.625 83.3998 323.811 60.842C324.169 60.0497 322.989 59.3471 322.631 60.1543Z" fill="#43632D"/>
<path d="M312.624 78.6162C312.624 78.6162 309.457 70.8726 312.624 70.0206C315.79 69.1535 316.657 76.613 316.657 76.613C316.657 76.613 320.017 69.7365 323.318 71.1716C326.619 72.6067 321.571 79.6327 321.571 79.6327C321.571 79.6327 327.605 73.2495 329.994 74.7893C332.384 76.329 326.708 86.8979 315.984 85.4179C305.26 83.938 303.453 75.746 305.858 73.2944C308.263 70.8428 312.624 78.6311 312.624 78.6311V78.6162Z" fill="#F04848"/>
<path d="M320.674 67.255C320.674 67.255 312.176 66.7168 309.099 55.5649C306.022 44.4131 305.873 39.8686 308.068 39.7191C310.264 39.5696 315.402 49.107 315.402 49.107C315.402 49.107 313.61 28.1636 318.763 27.6255C323.901 27.0873 323.901 46.0276 323.901 46.0276C323.901 46.0276 328.889 24.6058 333.146 25.3383C337.403 26.0708 330.652 47.4477 330.652 47.4477C330.652 47.4477 340.091 34.4422 343.213 37.0881C346.334 39.7341 332.429 54.5484 332.429 54.5484C332.429 54.5484 343.108 46.9245 344.572 49.705C346.036 52.5004 334.46 69.6916 320.674 67.255Z" fill="#F04848"/>
<path d="M365.751 78.2873C362.39 84.4612 355.848 88.0489 350.128 92.1299C344.422 96.211 338.836 102.101 339.225 109.112C339.643 116.96 347.126 122.312 350.696 129.323C353.548 134.914 353.757 141.805 351.263 147.56C351.099 147.934 350.935 148.278 350.755 148.637C349.725 150.565 348.366 152.15 346.782 153.346C346.424 153.615 346.051 153.884 345.677 154.093C339.733 157.83 331.339 157.053 326.051 151.417C322.541 147.68 319.823 143.21 318.18 138.337C315.148 129.293 315.955 119.038 320.316 110.562C325.992 99.6044 337.104 91.9506 341.48 80.41C344.527 72.4124 343.915 63.5477 342.899 55.0418C341.883 46.5508 340.509 37.9103 342.092 29.5091C343.676 21.1078 348.963 12.7813 357.163 10.3446C352.114 16.5185 353.279 25.6672 355.699 33.2612C358.119 40.8553 362.51 47.672 365.393 55.1016C368.29 62.5312 369.575 71.2463 365.766 78.2574L365.751 78.2873Z" fill="#587E3D"/>
<path d="M334.191 131.251C338.06 138.591 344.318 145.438 346.782 153.346C346.424 153.615 346.051 153.884 345.677 154.093C342.809 144.018 333.206 135.796 330.517 125.556C327.62 114.538 329.726 102.983 336.521 93.8341C344.198 83.4895 359.179 74.4604 355.221 59.4367C352.667 49.7349 345.095 41.0347 346.797 30.5107C346.932 29.6287 348.261 30.0024 348.112 30.8694C346.215 42.6193 356.685 51.6484 357.178 63.0544C357.73 75.5815 347.245 83.3251 339.867 91.9057C330.592 102.669 327.366 118.261 334.206 131.236L334.191 131.251Z" fill="#B7D247"/>
<path d="M317.493 518.562C317.493 518.562 310.802 460.575 350.203 429.96C350.203 429.96 365.333 470.292 317.493 518.562Z" fill="#587E3D"/>
<path d="M344.766 441.934C335.595 467.212 326.425 492.491 317.254 517.769C316.955 518.607 318.27 518.965 318.568 518.128C327.739 492.85 336.91 467.571 346.08 442.293C346.379 441.455 345.065 441.097 344.766 441.934Z" fill="#B7D247"/>
<path d="M317.493 518.562C317.493 518.562 326.903 463.819 371.74 450.858C371.74 450.858 367.364 518.562 317.493 518.562Z" fill="#83B245"/>
<path d="M364.093 461.636C353.967 483.91 337.985 503.134 317.896 517.082C317.179 517.575 317.866 518.771 318.583 518.263C338.866 504.181 355.057 484.822 365.273 462.324C365.632 461.532 364.452 460.829 364.093 461.636Z" fill="#B7D247"/>
<path d="M308.442 518.562C308.442 518.562 300.899 474.672 264.948 464.267C264.948 464.267 268.458 518.562 308.442 518.562Z" fill="#83B245"/>
<path d="M271.087 472.923C279.197 490.787 292.012 506.184 308.128 517.381C308.711 517.784 308.158 518.741 307.576 518.338C291.31 507.051 278.331 491.534 270.131 473.491C269.847 472.848 270.788 472.295 271.072 472.938L271.087 472.923Z" fill="#B7D247"/>
<path d="M311.608 443.369C311.608 443.369 331.548 445.013 331.548 413.352H337.477C337.477 413.352 337.806 452.607 311.608 454.581V443.369Z" fill="#70412C"/>
<path d="M308.606 459.873C308.606 459.873 272.222 467.467 279.466 406.759L271.222 404.457C271.222 404.457 261.916 477.692 308.591 477.692V459.873H308.606Z" fill="#70412C"/>
<path d="M316.388 410.721L321.332 521.223H301.885L306.172 410.721H316.388Z" fill="#985A42"/>
<path d="M323.243 418.016C294.491 418.15 275.329 412.694 263.231 403.067C247.682 390.719 243.784 371.48 246.099 348.414C250.221 307.424 257.525 267.062 301.974 263.564C301.974 263.564 315.432 262.443 329.949 271.412C339.867 277.526 350.262 288.349 357.222 307.424C374.369 354.453 388.976 417.702 323.243 418.016Z" fill="#587E3D"/>
<path d="M339.344 312.103C339.344 357.592 306.485 395.413 263.216 403.067C247.668 390.719 243.769 371.48 246.084 348.414C250.207 307.424 257.51 267.062 301.96 263.564C301.96 263.564 315.417 262.443 329.935 271.412C335.969 283.685 339.344 297.498 339.344 312.103Z" fill="#83B245"/>
<path d="M353.862 380.927C352.891 380.658 351.487 381.256 351.338 382.363C350.964 385.053 350.606 387.759 350.233 390.45C350.083 391.556 350.486 392.647 351.666 392.976C352.637 393.245 354.041 392.647 354.191 391.541C354.564 388.85 354.922 386.145 355.296 383.454C355.445 382.348 355.042 381.256 353.862 380.927Z" fill="#B7D247"/>
<path d="M346.469 388.626L345.558 382.407C345.393 381.301 344.004 380.703 343.033 380.972C341.854 381.301 341.435 382.392 341.6 383.499C341.898 385.577 342.212 387.654 342.511 389.717C342.675 390.824 344.064 391.422 345.035 391.152C346.215 390.824 346.633 389.732 346.469 388.626Z" fill="#B7D247"/>
<path d="M338.553 389.269C337.552 387.326 336.536 385.367 335.536 383.424C334.311 381.062 330.771 383.155 331.981 385.502C332.982 387.445 333.997 389.403 334.998 391.347C336.223 393.709 339.762 391.616 338.553 389.269Z" fill="#B7D247"/>
<path d="M341.405 370.777V374.081C341.405 376.727 345.513 376.727 345.513 374.081V370.777C345.513 368.131 341.405 368.131 341.405 370.777Z" fill="#B7D247"/>
<path d="M348.545 315.69C347.649 315.167 346.2 315.406 345.737 316.423C344.886 318.262 344.019 320.1 343.168 321.939C342.69 322.956 342.869 324.152 343.9 324.749C344.796 325.273 346.245 325.034 346.708 324.017C347.559 322.178 348.425 320.34 349.277 318.501C349.755 317.484 349.575 316.288 348.545 315.69Z" fill="#B7D247"/>
<path d="M338.433 314.166C338.299 313.06 337.612 312.103 336.372 312.103C335.356 312.103 334.176 313.045 334.311 314.166C334.61 316.483 334.893 318.815 335.192 321.132C335.327 322.238 336.014 323.195 337.253 323.195C338.269 323.195 339.449 322.253 339.314 321.132C339.016 318.815 338.732 316.483 338.433 314.166Z" fill="#B7D247"/>
<path d="M331.846 320.22C331.354 318.994 330.861 317.768 330.383 316.543C329.965 315.496 329.024 314.779 327.859 315.108C326.873 315.377 326.006 316.587 326.425 317.634C326.918 318.86 327.41 320.086 327.888 321.311C328.307 322.358 329.248 323.075 330.413 322.746C331.398 322.477 332.265 321.266 331.846 320.22Z" fill="#B7D247"/>
<path d="M313.654 296.137C312.803 297.617 311.952 299.082 311.1 300.562C309.771 302.864 313.326 304.927 314.655 302.64C315.507 301.16 316.358 299.695 317.209 298.215C318.539 295.913 314.984 293.85 313.654 296.137Z" fill="#B7D247"/>
<path d="M308.307 300.742C307.785 298.051 307.262 295.36 306.739 292.669C306.231 290.068 302.273 291.174 302.781 293.76C303.304 296.451 303.827 299.142 304.349 301.833C304.857 304.434 308.815 303.328 308.307 300.742Z" fill="#B7D247"/>
<path d="M301.123 300.996C300.511 299.89 299.898 298.798 299.286 297.692C298.748 296.72 297.419 296.391 296.478 296.96C295.492 297.528 295.194 298.798 295.746 299.77C296.359 300.876 296.971 301.967 297.583 303.074C298.121 304.045 299.435 304.374 300.391 303.806C301.377 303.238 301.676 301.967 301.123 300.996Z" fill="#B7D247"/>
<path d="M295.836 275C295.463 273.535 295.104 272.055 294.731 270.59C294.088 268.019 290.13 269.11 290.773 271.681C291.146 273.146 291.505 274.626 291.878 276.091C292.52 278.662 296.478 277.571 295.836 275Z" fill="#B7D247"/>
<path d="M301.392 269.887C300.391 269.603 299.062 270.216 298.868 271.322C298.629 272.668 298.375 274.013 298.136 275.373C297.942 276.48 298.42 277.586 299.57 277.9C300.571 278.184 301.9 277.571 302.094 276.465C302.333 275.119 302.587 273.774 302.826 272.414C303.02 271.307 302.542 270.201 301.392 269.887Z" fill="#B7D247"/>
<path d="M289.07 277.765C288.458 277.033 287.845 276.3 287.233 275.553C286.516 274.686 285.067 274.82 284.32 275.553C283.469 276.405 283.603 277.601 284.32 278.468L286.157 280.68C286.874 281.547 288.323 281.413 289.07 280.68C289.921 279.828 289.787 278.632 289.07 277.765Z" fill="#B7D247"/>
<path d="M266.532 310.668C265.919 313.119 265.307 315.571 264.695 318.023C264.052 320.594 268.01 321.685 268.653 319.114L270.49 311.759C271.132 309.188 267.174 308.097 266.532 310.668Z" fill="#B7D247"/>
<path d="M261.976 316.199C261.483 314.614 260.975 313.015 260.483 311.43C259.691 308.904 255.718 309.98 256.525 312.521C257.017 314.106 257.525 315.705 258.018 317.29C258.81 319.816 262.783 318.74 261.976 316.199Z" fill="#B7D247"/>
<path d="M276.3 347.188C275 345.663 273.686 344.138 272.387 342.613C271.655 341.761 270.221 341.866 269.474 342.613C268.638 343.451 268.742 344.676 269.474 345.528L273.387 350.103C274.119 350.955 275.553 350.85 276.3 350.103C277.136 349.266 277.032 348.04 276.3 347.188Z" fill="#B7D247"/>
<path d="M282.633 336.215C282.498 333.569 278.391 333.569 278.525 336.215C278.645 338.547 278.764 340.879 278.884 343.196C279.018 345.842 283.125 345.842 282.991 343.196C282.872 340.864 282.752 338.532 282.633 336.215Z" fill="#B7D247"/>
<path d="M289.981 339.743C288.816 339.429 287.86 340.132 287.457 341.178C286.845 342.778 286.232 344.362 285.62 345.962C285.216 347.008 286.053 348.219 287.054 348.488C288.219 348.802 289.175 348.1 289.578 347.053C290.19 345.454 290.803 343.869 291.415 342.27C291.818 341.223 290.982 340.012 289.981 339.743Z" fill="#B7D247"/>
<path d="M288.517 402.962C287.666 399.524 286.815 396.1 285.963 392.662C285.321 390.091 281.363 391.182 282.005 393.753C282.857 397.192 283.708 400.615 284.559 404.053C285.202 406.624 289.16 405.533 288.517 402.962Z" fill="#B7D247"/>
<path d="M295.537 397.491C294.551 397.222 293.177 397.82 293.013 398.926L292.281 403.71C292.117 404.816 292.55 405.922 293.715 406.236C294.701 406.505 296.075 405.907 296.239 404.801C296.478 403.201 296.732 401.617 296.971 400.017C297.135 398.911 296.702 397.805 295.537 397.491Z" fill="#B7D247"/>
<path d="M280.93 403.216C279.586 401.99 278.241 400.75 276.897 399.524C274.941 397.73 272.028 400.63 273.985 402.439C275.329 403.665 276.673 404.905 278.017 406.131C279.974 407.925 282.886 405.025 280.93 403.216Z" fill="#B7D247"/>
<path d="M465.299 67.255H361.733C364.795 60.9914 373.951 58.2857 379.776 62.0827C375.848 59.2872 375.803 52.8891 379.223 49.4957C382.658 46.1023 389.111 46.7003 391.859 50.6617C388.618 42.8435 391.217 33.9489 398.565 29.7632C405.914 25.5775 416.22 27.7302 421.283 34.5169C426.346 41.3037 425.48 51.7979 419.386 57.6728C421.626 54.6531 426.884 52.8293 430.558 53.6216C434.232 54.4139 437.309 57.4934 438.101 61.1708C446.793 56.2676 460.37 58.5548 465.284 67.2401L465.299 67.255Z" fill="white"/>
<path d="M393.532 328.502L388.215 330.385L385.302 350.476L375.863 369.491L384.705 372.975C384.705 372.975 402.464 358.893 403.33 341.537L402.299 329.683L393.547 328.487L393.532 328.502Z" fill="#FAB282"/>
<path d="M411.559 309.786L407.452 303.687C407.452 303.687 392.68 311.34 388.23 330.4C388.23 330.4 394.577 329.548 403.509 337.441L411.574 309.786H411.559Z" fill="#C93C3C"/>
<path d="M425.629 419.466L422.732 512.358L422.642 515.393C422.582 516.798 421.537 517.979 420.118 518.158C414.203 518.906 399.446 520.58 398.013 519.219C396.19 517.5 409.14 511.685 409.14 511.685L401.597 423.591L425.659 419.48L425.629 419.466Z" fill="#FAB282"/>
<path d="M422.732 512.358L422.642 515.392C422.582 516.798 421.537 517.979 420.118 518.158C414.203 518.905 399.446 520.58 398.013 519.219C396.19 517.5 409.14 511.685 409.14 511.685C409.14 511.685 414.397 516.005 422.747 512.373L422.732 512.358Z" fill="#C93C3C"/>
<path d="M446.659 420.228L443.761 513.12L443.672 516.155C443.612 517.56 442.566 518.741 441.148 518.92C435.233 519.668 420.476 521.342 419.042 519.982C417.22 518.263 430.17 512.448 430.17 512.448L422.627 424.354L446.689 420.243L446.659 420.228Z" fill="#FCC7A4"/>
<path d="M443.761 513.105L443.672 516.14C443.612 517.545 442.566 518.726 441.148 518.905C435.233 519.653 420.476 521.327 419.042 519.967C417.22 518.248 430.17 512.433 430.17 512.433C430.17 512.433 435.427 516.753 443.776 513.12L443.761 513.105Z" fill="#F04848"/>
<path d="M421.895 269.229C421.268 268.258 421.044 267.017 421.298 265.881C421.552 264.745 422.269 263.728 423.254 263.1C422.134 262.457 421.611 260.963 421.776 259.677C421.94 258.391 422.956 257.24 424.21 256.911C422.866 256.224 422.03 254.863 421.985 253.354C421.94 251.844 422.761 250.334 424.061 249.557C425.36 248.779 427.078 248.764 428.377 249.527C427.272 247.568 427.959 244.922 429.692 243.487C431.424 242.052 434.187 242.052 435.905 243.487C436.637 241.948 438.325 240.752 440.012 240.498C441.685 240.258 443.478 240.901 444.613 242.157C445.748 243.413 446.196 245.251 445.793 246.911C446.525 246.178 447.794 245.969 448.825 246.074C451.035 246.313 452.992 248.107 453.41 250.289C453.828 252.472 452.678 254.863 450.707 255.895C452.185 256.224 453.47 257.644 453.903 259.109C454.336 260.574 453.948 262.248 452.902 263.354C453.5 264.162 454.202 265.133 454.515 266.09C454.829 267.047 454.859 268.138 454.411 269.05C453.753 270.425 452.125 271.128 450.602 271.143C449.079 271.158 447.615 270.62 446.181 270.081C446.554 271.621 445.837 273.161 444.389 273.804C442.94 274.461 441.058 273.938 440.147 272.638C440.102 273.998 438.833 274.88 437.533 275.284C436.234 275.687 434.695 275.209 433.874 274.118C431.917 275.792 429.184 276.33 426.779 275.448C424.375 274.551 422.522 272.294 422.119 269.738L421.91 269.214L421.895 269.229Z" fill="#4A2109"/>
<path d="M419.027 300.592L425.151 301.624L440.326 331.447L457.114 423.307C457.114 423.307 422.358 441.994 391.874 425.027L402.314 343.615C402.314 343.615 396.534 336.275 397.012 328.337C397.505 320.085 404.092 306.482 407.452 303.672L419.027 300.592Z" fill="#F04848"/>
<path d="M424.882 327.052L429.961 349.191L424.823 317.589L424.882 327.052Z" fill="#C93C3C"/>
<path d="M399.432 387.415C399.148 387.415 398.864 387.355 398.595 387.236C397.565 386.772 397.087 385.562 397.55 384.515C399.82 379.418 404.943 364.185 398.983 361.255C391.441 357.547 384.018 365.993 383.943 366.083C383.196 366.935 381.897 367.04 381.045 366.292C380.194 365.545 380.089 364.259 380.821 363.392C381.21 362.944 390.38 352.45 400.791 357.562C411.365 362.75 402.359 383.798 401.298 386.174C400.955 386.937 400.208 387.4 399.417 387.4L399.432 387.415Z" fill="#F7A40B"/>
<path d="M443.059 321.685L450.079 325.452C450.079 325.452 457.099 355.44 441.521 362.465C425.943 369.491 405.734 365.201 405.734 365.201C405.734 365.201 401.284 370 400.178 369.462C399.058 368.923 402.807 364.708 402.807 364.708C402.807 364.708 398.162 368.34 397.609 367.563C397.057 366.786 400.343 363.258 400.343 363.258C400.343 363.258 396.265 366.621 395.429 365.889C394.592 365.156 398.162 362.032 398.162 362.032C398.162 362.032 394.084 364.663 393.577 364.05C393.069 363.437 397.609 358.459 397.609 358.459C397.609 358.459 393.532 355.32 394.697 354.602C395.877 353.87 401.403 355.604 401.403 355.604L429.961 349.206L427.675 334.72L430.468 327.859L443.059 321.685Z" fill="#FCC7A4"/>
<path d="M422.522 303.851L427.69 334.705C433.485 329.055 444.448 324.421 450.094 325.452C450.094 325.452 442.387 301.295 423.717 300.607L422.522 303.866V303.851Z" fill="#F04848"/>
<path d="M424.016 289.41L425.211 302.311C425.211 302.311 424.539 307.484 417.489 307.334C412.919 307.334 412.844 303.208 412.844 303.208V296.451L424.016 289.395V289.41Z" fill="#FAB282"/>
<path d="M423.03 275.687C423.03 275.912 427.153 279.888 427.153 279.888L427.675 284.388L422.508 292.34C422.508 292.34 421.014 295.868 419.58 296.616C418.161 297.363 407.064 301.041 403.987 297.214C400.91 293.387 399.043 278.154 399.491 276.509C399.939 274.865 402.344 272.757 402.344 272.757L410.439 271.113L421.985 272.533L423.03 275.687Z" fill="#FCC7A4"/>
<path d="M399.491 276.509C399.491 276.509 410.589 271.337 415.01 275.089C414.502 275.762 414.621 276.629 414.89 277.421C415.159 278.214 415.846 278.841 416.653 279.051C416.369 280.187 416.473 281.532 416.742 282.668C416.921 283.476 417.444 284.388 418.281 284.358C419.102 284.328 419.55 283.401 419.774 282.624C419.998 281.861 420.207 281.069 420.611 280.381C421.014 279.694 421.671 279.096 422.463 278.976C423.702 278.782 424.838 279.813 425.286 280.994C425.734 282.175 425.644 283.535 425.047 284.657C424.464 285.763 423.374 286.615 422.164 286.914L422.508 292.355C422.508 292.355 430.185 289.5 430.155 282.07C430.125 274.701 425.136 265.791 415.682 265.941C406.242 266.09 398.67 269.394 399.491 276.524V276.509Z" fill="#6D310D"/>
<path d="M371.92 386.384L340.509 387.415V389.478L380.328 396.175L371.92 386.384Z" fill="#F7A40B"/>
<path d="M386.467 364.992L396.833 375.65C402.329 381.301 402.225 390.33 396.609 395.861C390.948 401.437 381.837 401.333 376.311 395.637L365.617 384.635C363.257 382.198 363.361 378.296 365.856 376.009L378.103 364.753C380.493 362.555 384.212 362.66 386.482 364.992H386.467Z" fill="#F7D30B"/>
<path d="M342.75 388.447C342.75 388.447 341.898 384.844 338.807 384.665V393.081C338.807 393.081 341.719 393.081 342.75 388.447Z" fill="#F7A40B"/>
<path d="M158.455 151.118C158.455 151.118 141.652 161.074 140.592 160.416C139.517 159.759 148.956 141.521 153.601 139.099C158.231 136.663 162.025 145.303 162.025 145.303L158.47 151.133L158.455 151.118Z" fill="#C93C3C"/>
<path d="M219.215 157.352C219.215 157.352 236.451 166.516 236.451 167.771C236.451 169.027 215.988 170.462 211.493 167.771C206.997 165.081 212.389 157.352 212.389 157.352H219.215Z" fill="#F04848"/>
<path d="M186.624 109.486C186.624 109.486 218.065 111.1 233.329 117.872C238.736 120.279 241.32 126.632 238.87 132.029C234.36 141.999 217.721 152.688 158.41 151.537L158.903 142.582L196.602 132.402L178.216 128.994L186.624 109.486Z" fill="#4A2109"/>
<path d="M147.597 58.8388C146.312 64.1157 139.875 66.2385 136.783 70.7082C132.96 76.2243 135.349 84.3416 140.443 88.7366C145.536 93.1315 152.496 94.5666 159.172 95.2094C168.851 96.1512 178.828 95.7177 187.984 92.399C197.139 89.0953 205.399 82.6673 209.566 73.8624C213.733 65.0575 213.21 53.8608 207.131 46.2668C205.309 44.0095 203.054 42.0661 201.71 39.4949C199.365 34.9953 200.276 29.5539 201.471 24.6208C202.666 19.6877 204.07 14.4705 202.516 9.64202C200.724 3.99135 194.869 0.104636 188.954 -5.98002e-06C183.04 -0.104648 175.811 1.73406 172.405 6.5775C167.73 13.2447 168.597 23.8584 163.1 29.8828C160.322 32.9324 156.588 34.8757 153.287 37.3274C149.987 39.779 146.925 43.1574 146.596 47.2534C146.297 51.1401 148.508 55.0418 147.597 58.8388Z" fill="#4A2109"/>
<path d="M245.905 70.0206C245.905 70.0206 226.324 95.643 216.9 94.1033C209.939 92.9671 202.964 85.7468 198.125 79.5281C194.212 74.5053 191.673 70.1252 191.673 70.1252L187.909 49.72L191.658 44.4879C191.658 44.4879 198.498 45.5792 206.758 58.3455C208.431 60.9167 209.895 63.189 211.179 65.1772C216.242 73.0552 218.423 76.4935 218.423 76.4935L240.274 62.5611L245.905 70.0356V70.0206Z" fill="#FAB282"/>
<path d="M211.179 65.1622C210.567 73.7578 198.125 79.5131 198.125 79.5131C194.212 74.4903 191.673 70.1102 191.673 70.1102L187.909 49.705L191.658 44.4729C191.658 44.4729 198.498 45.5642 206.758 58.3305C208.431 60.9017 209.895 63.174 211.179 65.1622Z" fill="#C93C3C"/>
<path d="M186.042 43.1723L191.673 44.4729L198.782 64.9379C200.47 69.7814 199.768 75.2526 196.587 79.2739C195.795 80.2755 194.854 81.1874 193.749 81.9198L190.149 106.391C190.149 106.391 162.025 113.327 145.79 106.391C145.79 106.391 142.115 63.5178 162.443 46.6255C172.181 39.48 181.696 42.0811 181.696 42.0811L186.027 43.1574L186.042 43.1723Z" fill="#F04848"/>
<path d="M179.873 55.8938L193.734 81.9348L192.33 91.5469L180.471 74.0567L179.873 55.8938Z" fill="#C93C3C"/>
<path d="M156.275 61.0662C157.514 70.1999 158.933 79.4981 162.996 87.7798C167.058 96.0615 174.183 103.327 183.189 105.27C176.647 89.2299 167.521 74.2361 156.275 61.0662Z" fill="#C93C3C"/>
<path d="M190.149 33.65L187.55 46.6405C187.55 46.6405 180.396 51.8427 175.213 44.4729L177.603 29.7483L190.149 33.65Z" fill="#FAB282"/>
<path d="M190.358 11.1219C190.358 11.1219 192.3 16.7577 196.856 17.6247V28.8812C196.856 28.8812 197.304 36.849 187.984 37.3273C175.408 37.9701 174.332 26.7136 175.632 19.1345C175.632 19.1345 188.626 18.0582 190.358 11.1219Z" fill="#FCC7A4"/>
<path d="M145.79 106.406C145.79 106.406 145.79 140.833 168.731 143.868C186.042 144.735 205.832 113.208 205.832 113.208L210.612 158.144C210.612 158.144 216.451 160.955 221.858 158.144C221.858 158.144 226.697 95.1945 217.124 89.5588C211.06 86.001 195.9 94.6713 185.579 101.533C176.334 107.662 165.117 110.039 154.184 108.17C151.615 107.737 148.807 107.154 145.805 106.406H145.79Z" fill="#6D310D"/>
<path d="M184.981 68.4061L179.873 55.8939C177.304 49.6004 170.105 46.6256 163.847 49.2566C158.351 51.5737 155.378 57.4934 156.693 63.3086C158.037 69.2582 160.292 76.2094 163.578 82.9215C172.316 81.3519 180.307 75.9404 184.981 68.3912V68.4061Z" fill="#F04848"/>
<path d="M220.992 95.6429H240.872L237.197 115.42H224.203L220.992 95.6429Z" fill="#444444"/>
<path d="M240.274 106.929C239.961 106.316 234.643 107.767 234.643 107.767C234.643 107.767 240.005 104.866 239.737 103.805C239.468 102.744 233.284 104.822 233.284 104.822C233.284 104.822 239.079 101.264 238.512 100.471C237.944 99.6792 229.954 102.953 229.954 102.953C229.954 102.953 233.852 98.6178 231.895 97.7508C229.954 96.8837 225.831 102.953 225.831 102.953L193.719 89.8279L184.967 68.4061C180.277 75.9553 172.286 81.3668 163.563 82.9364C166.834 89.6335 171.121 96.0915 176.528 101.054C195.705 118.186 228.43 114.329 228.43 114.329C237.048 114.239 240.2 110.682 239.99 109.934C239.781 109.187 234.987 110.293 234.987 110.293C234.987 110.293 240.573 107.572 240.259 106.944L240.274 106.929Z" fill="#FCC7A4"/>
<path d="M243.321 69.3179C243.321 69.3179 245.935 71.65 250.192 69.3179C254.448 66.9859 255.942 61.0661 255.942 61.0661L245.92 54.2644L242.843 57.5233L242.455 59.9001V64.8781L243.336 69.288L243.321 69.3179Z" fill="#FAB282"/>
<path d="M245.801 5.27697C248.504 6.98114 249.535 10.4941 249.355 13.6782C249.176 16.8623 248.011 19.897 247.264 22.9914C246.517 26.0858 246.234 29.5091 247.712 32.3344C249.131 35.0701 252.133 37.2078 252.104 40.2872C252.089 42.4399 250.55 44.2338 249.52 46.1323C247.712 49.4808 247.429 53.6067 248.758 57.1645C250.087 60.7224 253.03 63.6523 256.584 64.9678C256.166 65.5808 255.867 66.7468 255.449 67.3597C250.655 64.9828 246.338 60.7822 244.486 55.7593C242.619 50.7365 242.754 45.0111 244.845 40.078C245.502 38.5382 246.353 36.9835 246.219 35.3093C245.95 31.6169 241.215 29.6885 240.394 26.0709C239.946 24.0976 240.782 22.0646 241.887 20.3753C243.008 18.7011 244.426 17.2211 245.382 15.4422C246.995 12.4225 247.264 8.34149 245.801 5.24707V5.27697Z" fill="#587E3D"/>
<path d="M231.074 11.1219C234.091 12.1385 235.928 15.2927 236.51 18.432C237.093 21.5712 236.675 24.7852 236.69 27.9843C236.705 31.1833 237.242 34.5618 239.333 36.9686C241.365 39.2856 244.785 40.6609 245.487 43.6507C245.98 45.7436 244.919 47.8513 244.367 49.9442C243.396 53.6216 244.098 57.7027 246.249 60.8419C248.399 63.9812 251.924 66.1189 255.703 66.5674C255.434 67.255 255.419 68.4659 255.165 69.1685C249.938 68.0024 244.755 64.9379 241.768 60.5131C238.766 56.0732 237.541 50.4824 238.392 45.2054C238.661 43.561 239.124 41.8419 238.601 40.2424C237.466 36.7144 232.403 35.967 230.745 32.6483C229.849 30.8395 230.163 28.657 230.85 26.7585C231.537 24.86 232.567 23.0811 233.075 21.1377C233.927 17.819 233.21 13.7828 231.074 11.1369V11.1219Z" fill="#83B245"/>
<path d="M249.803 55.0417C249.027 55.8938 244.486 59.7955 243.784 59.1527C243.082 58.5099 246.488 53.5917 247.264 52.7396C248.041 51.8875 249.236 51.6932 249.938 52.336C250.64 52.9788 250.58 54.1896 249.803 55.0417Z" fill="#FAB282"/>
<path d="M251.924 56.9702C251.148 57.8223 246.607 61.7239 245.905 61.0811C245.203 60.4383 248.609 55.5201 249.385 54.6681C250.162 53.816 251.357 53.6216 252.059 54.2644C252.761 54.9072 252.701 56.1181 251.924 56.9702Z" fill="#FAB282"/>
<path d="M254.06 58.8985C253.283 59.7506 248.743 63.6523 248.041 63.0095C247.339 62.3667 250.744 57.4485 251.521 56.5964C252.298 55.7443 253.493 55.55 254.195 56.1928C254.897 56.8356 254.837 58.0465 254.06 58.8985Z" fill="#FAB282"/>
<path d="M256.196 60.827C255.419 61.6791 250.879 65.5807 250.177 64.9379C249.475 64.2951 252.88 59.377 253.657 58.5249C254.434 57.6728 255.628 57.4785 256.33 58.1213C257.032 58.7641 256.973 59.9749 256.196 60.827Z" fill="#FAB282"/>
<path d="M239.274 65.3416L240.274 62.5461C240.274 62.5461 239.617 57.9269 240.274 56.7161C240.931 55.5052 245.248 52.1716 246.368 52.6799C247.488 53.1732 244.531 57.613 244.531 57.613C244.531 57.613 249.848 64.3101 242.425 67.1952L239.274 65.3715V65.3416Z" fill="#FAB282"/>
</g>
<defs>
<clipPath id="clip0_9_156">
<rect width="528" height="522" fill="white"/>
</clipPath>
</defs>
</svg>
